<mxfile host="app.diagrams.net" modified="2023-10-04T15:00:01.388Z" agent="Mozilla/5.0 (Macintosh; Intel Mac OS X 10_15_7) AppleWebKit/537.36 (KHTML, like Gecko) Chrome/116.0.0.0 Safari/537.36" etag="kg9Rty925a3EWFEufqG6" version="21.7.2" type="device">
  <diagram name="第 1 页" id="EUy8sKFdm-UMfTmErbN2">
    <mxGraphModel dx="1195" dy="638" grid="1" gridSize="10" guides="1" tooltips="1" connect="1" arrows="1" fold="1" page="1" pageScale="1" pageWidth="827" pageHeight="1169" math="0" shadow="0">
      <root>
        <mxCell id="0" />
        <mxCell id="1" parent="0" />
        <mxCell id="nIQy2rvv0SGHNhtGU4vh-1" value="N x cited articles&lt;br&gt;(Summaries of Conclusions)" style="rounded=1;whiteSpace=wrap;html=1;" vertex="1" parent="1">
          <mxGeometry x="55" y="60" width="170" height="60" as="geometry" />
        </mxCell>
        <mxCell id="nIQy2rvv0SGHNhtGU4vh-2" value="&lt;font style=&quot;font-size: 18px;&quot;&gt;+&lt;/font&gt;" style="text;html=1;align=center;verticalAlign=middle;resizable=0;points=[];autosize=1;strokeColor=none;fillColor=none;" vertex="1" parent="1">
          <mxGeometry x="225" y="70" width="30" height="40" as="geometry" />
        </mxCell>
        <mxCell id="nIQy2rvv0SGHNhtGU4vh-3" value="Triggers&lt;br&gt;(Methods, Weakness,Improvements)" style="rounded=1;whiteSpace=wrap;html=1;" vertex="1" parent="1">
          <mxGeometry x="255" y="60" width="205" height="60" as="geometry" />
        </mxCell>
        <mxCell id="nIQy2rvv0SGHNhtGU4vh-5" value="1. Selection of cited research: top-N cited&amp;nbsp;research (Google Scholar)&lt;br&gt;2. Selection of citations (may affected by popular research, not in specific domain): Choose from &quot;Related Work&quot;&lt;br&gt;&lt;div style=&quot;&quot;&gt;3. Triggers: Extracted weakness, improvements from &quot;Abstract&quot;, &quot;Introduction&quot; (first 2 paragraphs) &amp;amp; &quot;Conclusions&quot;.&lt;/div&gt;&lt;div style=&quot;&quot;&gt;&lt;br&gt;&lt;/div&gt;" style="text;html=1;align=left;verticalAlign=middle;resizable=0;points=[];autosize=1;strokeColor=none;fillColor=none;" vertex="1" parent="1">
          <mxGeometry x="130" y="140" width="630" height="70" as="geometry" />
        </mxCell>
        <mxCell id="nIQy2rvv0SGHNhtGU4vh-7" value="" style="endArrow=classic;html=1;rounded=0;" edge="1" parent="1">
          <mxGeometry width="50" height="50" relative="1" as="geometry">
            <mxPoint x="470" y="89.66999999999996" as="sourcePoint" />
            <mxPoint x="545" y="89.66999999999996" as="targetPoint" />
          </mxGeometry>
        </mxCell>
        <mxCell id="nIQy2rvv0SGHNhtGU4vh-8" value="Summary of target research (&lt;b&gt;Abstract&lt;/b&gt; + &lt;b&gt;Conclusion&lt;/b&gt;)" style="rounded=1;whiteSpace=wrap;html=1;" vertex="1" parent="1">
          <mxGeometry x="562.5" y="60" width="180" height="60" as="geometry" />
        </mxCell>
        <mxCell id="nIQy2rvv0SGHNhtGU4vh-9" value="&lt;b&gt;&lt;font style=&quot;font-size: 14px;&quot;&gt;Evaluation&lt;/font&gt;&lt;/b&gt;" style="text;html=1;align=center;verticalAlign=middle;resizable=0;points=[];autosize=1;strokeColor=none;fillColor=none;" vertex="1" parent="1">
          <mxGeometry x="85" y="240" width="90" height="30" as="geometry" />
        </mxCell>
        <mxCell id="nIQy2rvv0SGHNhtGU4vh-10" value="1. Extract with GPT?&lt;br&gt;2. Ground Truth: proposed methods for weakness&lt;br&gt;3. Metrics: BERT Score, BLEU, Triplet Loss" style="text;html=1;align=left;verticalAlign=middle;resizable=0;points=[];autosize=1;strokeColor=none;fillColor=none;" vertex="1" parent="1">
          <mxGeometry x="130" y="270" width="290" height="60" as="geometry" />
        </mxCell>
        <mxCell id="nIQy2rvv0SGHNhtGU4vh-11" value="&lt;b&gt;&lt;font style=&quot;font-size: 14px;&quot;&gt;Prompts&lt;/font&gt;&lt;/b&gt;" style="text;html=1;align=center;verticalAlign=middle;resizable=0;points=[];autosize=1;strokeColor=none;fillColor=none;" vertex="1" parent="1">
          <mxGeometry x="85" y="350" width="80" height="30" as="geometry" />
        </mxCell>
        <mxCell id="nIQy2rvv0SGHNhtGU4vh-12" value="&lt;div&gt;&lt;span style=&quot;background-color: initial;&quot;&gt;1. Identify the limitations or weaknesses of the research it cites?&lt;/span&gt;&lt;br&gt;&lt;/div&gt;&lt;div&gt;&lt;div&gt;2. Extract the main challenges the paper addresses and the proposed solutions?&quot;&lt;/div&gt;&lt;/div&gt;" style="text;html=1;align=left;verticalAlign=middle;resizable=0;points=[];autosize=1;strokeColor=none;fillColor=none;" vertex="1" parent="1">
          <mxGeometry x="130" y="380" width="460" height="40" as="geometry" />
        </mxCell>
      </root>
    </mxGraphModel>
  </diagram>
</mxfile>
